<?xml version="1.0" encoding="UTF-8" ?>
<svg xmlns="http://www.w3.org/2000/svg" xmlns:xlink="http://www.w3.org/1999/xlink" width="148pt" height="564pt" viewBox="0.00 0.00 148.02 564.06">
<g id="graph0" class="graph" transform="scale(1 1) rotate(0) translate(4 560.0629)">
<title>name</title>
<polygon fill="#ffffff" stroke="transparent" points="-4,4 -4,-560.0629 144.0157,-560.0629 144.0157,4 -4,4"/>
<!-- V01 -->
<g id="node1" class="node">
<title>V01</title>
<ellipse fill="none" stroke="#000000" cx="95.0079" cy="-534.0629" rx="18" ry="18"/>
<ellipse fill="none" stroke="#000000" cx="95.0079" cy="-534.0629" rx="22" ry="22"/>
<text text-anchor="middle" x="95.0079" y="-529.8629" font-family="Times,serif" font-size="14.00" fill="#000000">S</text>
</g>
<!-- V02 -->
<g id="node3" class="node">
<title>V02</title>
<ellipse fill="none" stroke="#000000" cx="95.0079" cy="-458.055" rx="18.0157" ry="18.0157"/>
<text text-anchor="middle" x="95.0079" y="-453.855" font-family="Times,serif" font-size="14.00" fill="#000000">A</text>
</g>
<!-- V01&#45;&gt;V02 -->
<g id="edge1" class="edge">
<title>V01-&gt;V02</title>
<path fill="none" stroke="#000000" d="M95.0079,-511.6691C95.0079,-503.7869 95.0079,-494.8204 95.0079,-486.5062"/>
<polygon fill="#000000" stroke="#000000" points="98.508,-486.4543 95.0079,-476.4544 91.508,-486.4544 98.508,-486.4543"/>
</g>
<!-- V12 -->
<g id="node2" class="node">
<title>V12</title>
<ellipse fill="none" stroke="#000000" cx="95.0079" cy="-22" rx="18" ry="18"/>
<ellipse fill="none" stroke="#000000" cx="95.0079" cy="-22" rx="22" ry="22"/>
<text text-anchor="middle" x="95.0079" y="-17.8" font-family="Times,serif" font-size="14.00" fill="#000000">T</text>
</g>
<!-- V03 -->
<g id="node4" class="node">
<title>V03</title>
<ellipse fill="none" stroke="#000000" cx="95.0079" cy="-386.0471" rx="18" ry="18"/>
<text text-anchor="middle" x="95.0079" y="-381.8471" font-family="Times,serif" font-size="14.00" fill="#000000">B</text>
</g>
<!-- V02&#45;&gt;V03 -->
<g id="edge2" class="edge">
<title>V02-&gt;V03</title>
<path fill="none" stroke="#000000" d="M95.0079,-439.8844C95.0079,-432.1831 95.0079,-423.0255 95.0079,-414.4669"/>
<polygon fill="#000000" stroke="#000000" points="98.508,-414.4624 95.0079,-404.4624 91.508,-414.4624 98.508,-414.4624"/>
</g>
<!-- V04 -->
<g id="node5" class="node">
<title>V04</title>
<ellipse fill="none" stroke="#000000" cx="68.0079" cy="-314.0393" rx="18" ry="18"/>
<text text-anchor="middle" x="68.0079" y="-309.8393" font-family="Times,serif" font-size="14.00" fill="#000000">C</text>
</g>
<!-- V03&#45;&gt;V04 -->
<g id="edge3" class="edge">
<title>V03-&gt;V04</title>
<path fill="none" stroke="#000000" d="M88.6092,-368.9823C85.4148,-360.463 81.4789,-349.9659 77.9061,-340.4374"/>
<polygon fill="#000000" stroke="#000000" points="81.1487,-339.1162 74.3606,-330.9816 74.5943,-341.5739 81.1487,-339.1162"/>
</g>
<!-- V05 -->
<g id="node6" class="node">
<title>V05</title>
<ellipse fill="none" stroke="#000000" cx="122.0079" cy="-314.0393" rx="18.0157" ry="18.0157"/>
<text text-anchor="middle" x="122.0079" y="-309.8393" font-family="Times,serif" font-size="14.00" fill="#000000">D</text>
</g>
<!-- V03&#45;&gt;V05 -->
<g id="edge4" class="edge">
<title>V03-&gt;V05</title>
<path fill="none" stroke="#000000" d="M101.4065,-368.9823C104.6009,-360.463 108.5368,-349.9659 112.1097,-340.4374"/>
<polygon fill="#000000" stroke="#000000" points="115.4214,-341.5739 115.6552,-330.9816 108.867,-339.1162 115.4214,-341.5739"/>
</g>
<!-- V08 -->
<g id="node9" class="node">
<title>V08</title>
<ellipse fill="none" stroke="#000000" cx="68.0079" cy="-242.0236" rx="18.0157" ry="18.0157"/>
<text text-anchor="middle" x="68.0079" y="-237.8236" font-family="Times,serif" font-size="14.00" fill="#000000">G</text>
</g>
<!-- V04&#45;&gt;V08 -->
<g id="edge8" class="edge">
<title>V04-&gt;V08</title>
<path fill="none" stroke="#000000" d="M68.0079,-295.8667C68.0079,-288.1646 68.0079,-279.006 68.0079,-270.4464"/>
<polygon fill="#000000" stroke="#000000" points="71.508,-270.4408 68.0079,-260.4409 64.508,-270.4409 71.508,-270.4408"/>
</g>
<!-- V06 -->
<g id="node7" class="node">
<title>V06</title>
<ellipse fill="none" stroke="#000000" cx="122.0079" cy="-242.0236" rx="18" ry="18"/>
<text text-anchor="middle" x="122.0079" y="-237.8236" font-family="Times,serif" font-size="14.00" fill="#000000">E</text>
</g>
<!-- V05&#45;&gt;V06 -->
<g id="edge5" class="edge">
<title>V05-&gt;V06</title>
<path fill="none" stroke="#000000" d="M122.0079,-295.8667C122.0079,-288.1646 122.0079,-279.006 122.0079,-270.4464"/>
<polygon fill="#000000" stroke="#000000" points="125.508,-270.4408 122.0079,-260.4409 118.508,-270.4409 125.508,-270.4408"/>
</g>
<!-- V07 -->
<g id="node8" class="node">
<title>V07</title>
<ellipse fill="none" stroke="#000000" cx="122.0079" cy="-98" rx="18" ry="18"/>
<text text-anchor="middle" x="122.0079" y="-93.8" font-family="Times,serif" font-size="14.00" fill="#000000">F</text>
</g>
<!-- V06&#45;&gt;V07 -->
<g id="edge6" class="edge">
<title>V06-&gt;V07</title>
<path fill="none" stroke="#000000" d="M122.0079,-223.7829C122.0079,-199.2176 122.0079,-155.2568 122.0079,-126.3587"/>
<polygon fill="#000000" stroke="#000000" points="125.508,-126.0925 122.0079,-116.0926 118.508,-126.0926 125.508,-126.0925"/>
</g>
<!-- V07&#45;&gt;V12 -->
<g id="edge7" class="edge">
<title>V07-&gt;V12</title>
<path fill="none" stroke="#000000" d="M115.8811,-80.7544C112.925,-72.4333 109.2883,-62.1969 105.8834,-52.6127"/>
<polygon fill="#000000" stroke="#000000" points="109.103,-51.2198 102.4572,-42.9685 102.5069,-53.5632 109.103,-51.2198"/>
</g>
<!-- V09 -->
<g id="node10" class="node">
<title>V09</title>
<ellipse fill="none" stroke="#000000" cx="18.0079" cy="-170.0079" rx="18.0157" ry="18.0157"/>
<text text-anchor="middle" x="18.0079" y="-165.8079" font-family="Times,serif" font-size="14.00" fill="#000000">H</text>
</g>
<!-- V08&#45;&gt;V09 -->
<g id="edge9" class="edge">
<title>V08-&gt;V09</title>
<path fill="none" stroke="#000000" d="M57.6478,-227.1019C50.8767,-217.3493 41.8933,-204.4104 34.1907,-193.3162"/>
<polygon fill="#000000" stroke="#000000" points="36.9328,-191.1286 28.3546,-184.9104 31.1828,-195.1208 36.9328,-191.1286"/>
</g>
<!-- V10 -->
<g id="node11" class="node">
<title>V10</title>
<ellipse fill="none" stroke="#000000" cx="72.0079" cy="-170.0079" rx="18" ry="18"/>
<text text-anchor="middle" x="72.0079" y="-165.8079" font-family="Times,serif" font-size="14.00" fill="#000000">I</text>
</g>
<!-- V08&#45;&gt;V10 -->
<g id="edge10" class="edge">
<title>V08-&gt;V10</title>
<path fill="none" stroke="#000000" d="M69.0172,-223.851C69.445,-216.1489 69.9537,-206.9903 70.4292,-198.4307"/>
<polygon fill="#000000" stroke="#000000" points="73.9248,-198.6039 70.9849,-188.4251 66.9356,-198.2156 73.9248,-198.6039"/>
</g>
<!-- V11 -->
<g id="node12" class="node">
<title>V11</title>
<ellipse fill="none" stroke="#000000" cx="68.0079" cy="-98" rx="18" ry="18"/>
<text text-anchor="middle" x="68.0079" y="-93.8" font-family="Times,serif" font-size="14.00" fill="#000000">J</text>
</g>
<!-- V09&#45;&gt;V11 -->
<g id="edge12" class="edge">
<title>V09-&gt;V11</title>
<path fill="none" stroke="#000000" d="M28.3679,-155.0878C35.139,-145.3363 44.1224,-132.3988 51.8251,-121.3058"/>
<polygon fill="#000000" stroke="#000000" points="54.8324,-123.1112 57.6611,-112.901 49.0826,-119.1187 54.8324,-123.1112"/>
</g>
<!-- V10&#45;&gt;V11 -->
<g id="edge11" class="edge">
<title>V10-&gt;V11</title>
<path fill="none" stroke="#000000" d="M70.9985,-151.8372C70.5707,-144.136 70.062,-134.9784 69.5866,-126.4197"/>
<polygon fill="#000000" stroke="#000000" points="73.0802,-126.2057 69.0308,-116.4153 66.0909,-126.594 73.0802,-126.2057"/>
</g>
<!-- V11&#45;&gt;V12 -->
<g id="edge13" class="edge">
<title>V11-&gt;V12</title>
<path fill="none" stroke="#000000" d="M74.1346,-80.7544C77.0908,-72.4333 80.7274,-62.1969 84.1323,-52.6127"/>
<polygon fill="#000000" stroke="#000000" points="87.5089,-53.5632 87.5585,-42.9685 80.9127,-51.2198 87.5089,-53.5632"/>
</g>
</g>
</svg>